Santiago Alvarez' account of the trip by Fidel Castro to Chile in November 1971,
expanded into an historical view of imperialist exploitation across Latin America.

Selected among the most significant films of 1972, Annual Critics Choice, Havana, Cuba .


   General
      Complete name : De América soy hijo... y a ella me debo.avi
      Format : AVI
      Format/Info : Audio Video Interleave
      File size : 1.51 GiB
      Duration : 2h 4mn
      Overall bit rate : 1 729 Kbps
      Writing application : FairUse Wizard - http://fairusewizard.com
      Writing library : The best and REALLY easy backup tool
   Video #0
      ID : 0
      Format : MPEG-4 Visual
      Format profile : AdvancedSimple@L5
      Format settings, BVOP : Yes
      Format settings, QPel : No
      Format settings, GMC : No warppoints
      Format settings, Matrix : Default (MPEG)
      Muxing mode : Packed bitstream
      Codec ID : XVID
      Codec ID/Hint : XviD
      Duration : 2h 4mn
      Bit rate : 1 525 Kbps
      Width : 640 pixels
      Height : 368 pixels
      Display aspect ratio : 16:9
      Frame rate : 29.970 fps
      Resolution : 24 bits
      Colorimetry : 4:2:0
      Scan type : Progressive
      Bits/(Pixel*Frame) : 0.216
      Stream size : 1.33 GiB (88%)
      Writing library : XviD 1.2.1 (UTC 2008-12-04)
   Audio #1
      ID : 1
      Format : AC-3
      Format/Info : Audio Coding 3
      Codec ID : 2000
      Duration : 2h 4mn
      Bit rate mode : Constant
      Bit rate : 192 Kbps
      Channel(s) : 2 channels
      Channel positions : L R
      Sampling rate : 48.0 KHz
      Stream size : 171 MiB (11%)
      Alignment : Split accross interleaves
      Interleave, duration : 33 ms (1.00 video frame)
      Interleave, preload duration : 500 ms
 
http://www.imdb.com/title/tt0150284/

Spanish audio; Multilanguage (English, German, French, Italian, Portuguese, Spanish) subpack

Santiago Alvarez - De America soy hijo... y a ella me debo AKA I Am A Son Of America... And I Am Indebted To It (1972)